<svg width="79" height="56" viewBox="0 0 79 56" fill="none" xmlns="http://www.w3.org/2000/svg">
<path d="M0 15.4518C8.05301 15.4518 14.5813 21.98 14.5813 30.033V55.2782C6.52825 55.2782 0 48.75 0 40.697V15.4518Z" fill="#003059"/>
<path d="M32.2092 15.4518C40.2622 15.4518 46.7905 21.98 46.7905 30.033V55.2782C38.7375 55.2782 32.2092 48.75 32.2092 40.697V15.4518Z" fill="#003059"/>
<path d="M64.4187 15.4518C72.4717 15.4518 79 21.98 79 30.033V55.2782C70.947 55.2782 64.4187 48.75 64.4187 40.697V15.4518Z" fill="#003059"/>
<path d="M30.686 15.4518C22.633 15.4518 16.1048 21.98 16.1048 30.033V55.2782C24.1578 55.2782 30.686 48.75 30.686 40.697V15.4518Z" fill="#003059"/>
<path d="M62.8953 15.4518C54.8423 15.4518 48.314 21.98 48.314 30.033V55.2782C56.367 55.2782 62.8953 48.75 62.8953 40.697V15.4518Z" fill="#003059"/>
<path fill-rule="evenodd" clip-rule="evenodd" d="M30.6699 0H15.4522C15.4519 0.0389947 15.4518 0.078024 15.4518 0.117087C15.4518 8.54741 22.2544 15.3889 30.6699 15.4518V0Z" fill="#003059"/>
<circle cx="55.7136" cy="7.18182" r="7.18182" fill="#003059"/>
</svg>
